<svg width="180" height="32" viewBox="0 0 180 32" fill="none" xmlns="http://www.w3.org/2000/svg">
<g clip-path="url(#clip0_330_311)">
<path d="M170.994 4.34546L162.136 7.46592C161.76 7.59887 161.398 7.23637 161.531 6.86024L163.511 1.23751C163.681 0.756827 163.324 0.253418 162.815 0.253418H156.566C156.07 0.253418 155.668 0.655691 155.668 1.15115L157.075 24.6966L155.668 30.8489C155.668 31.3443 156.07 31.7466 156.566 31.7466H162.936C163.502 31.7466 163.927 31.2296 163.817 30.6739L162.767 25.3648C162.708 25.0671 163.124 24.933 163.251 25.208L165.844 30.8409C165.985 31.1466 166.286 31.3489 166.623 31.3625L172.583 31.6102C172.938 31.625 173.267 31.4296 173.425 31.1114L179.836 18.1693C179.976 17.8864 179.958 17.5511 179.788 17.2852L171.75 4.75683C171.585 4.49887 171.3 4.34319 170.994 4.34319V4.34546ZM168.131 25.3852L161.7 16.7296C161.248 16.1205 161.309 15.2727 161.844 14.7352L166.375 10.1875C167.135 9.42501 168.423 9.66365 168.86 10.6466L173.485 21.0648C173.74 21.6386 173.619 22.3091 173.18 22.758L170.453 25.5432C169.795 26.2159 168.691 26.1409 168.13 25.3852H168.131Z" fill="#FA4616"/>
<path d="M154.865 30.484L151.734 17.7669C151.669 17.5056 151.657 17.2351 151.696 16.9692L154.008 1.40558C154.241 0.76353 153.766 0.0851207 153.083 0.0851207H143.441C142.811 0.0851207 142.343 0.668075 142.479 1.28285L148.773 18.4192C148.949 18.8988 148.681 19.4272 148.189 19.5669L138.853 22.2306C138.235 22.4067 137.642 21.8806 137.744 21.2465L140.979 1.13398C141.017 0.565803 140.566 0.0839844 139.996 0.0839844H131.575C130.933 0.0839844 130.462 0.689666 130.62 1.31239L135.353 29.2249C135.534 30.2908 136.579 30.8453 137.544 31.0578L141.208 31.9158C142.544 32.2556 143.931 30.776 144.303 29.4476L145.954 23.5567C146.092 23.1783 146.652 23.276 146.653 23.6783L145.728 31.0692C145.675 31.4988 146.009 31.8794 146.442 31.8817L153.981 31.9169C154.718 31.9203 155.198 31.1431 154.864 30.4863L154.865 30.484Z" fill="#FA4616"/>
<path d="M117.844 5.0318L113.089 0.33066C112.785 0.0306602 112.34 -0.076158 111.933 0.0545238L100.952 3.59089C100.624 3.69657 100.361 3.9443 100.236 4.26589L95.566 16.2716C95.2455 17.0954 95.3285 18.0216 95.791 18.775L106.792 31.1693C107.261 31.6977 107.934 32.0011 108.642 32.0011H112.196C112.502 32.0011 112.796 31.8784 113.01 31.6602L118.218 26.3807C118.43 26.1659 118.548 25.8773 118.548 25.5761V18.0716C118.548 17.3579 117.902 16.8182 117.2 16.9443L112.078 17.8659C111.613 17.95 111.246 18.3125 111.157 18.7784L110.297 23.2841C110.193 23.8238 109.722 24.2148 109.172 24.2148H106.71C106.166 24.2148 105.696 23.8307 105.588 23.2966L103.113 11.0727C102.961 10.3261 103.568 9.64202 104.327 9.70452L111.717 10.3068C112.432 10.3648 112.917 11.0579 112.728 11.7488C112.553 12.3898 112.959 13.0443 113.61 13.1727L117.116 13.867C117.844 14.0113 118.515 13.4352 118.483 12.6943L118.182 5.79543C118.169 5.5068 118.048 5.23407 117.843 5.03066L117.844 5.0318Z" fill="#FA4616"/>
<path d="M2.2613 31.8863H9.43289C10.709 31.8863 11.5283 30.5306 10.9363 29.4L7.53743 22.9238C7.03402 21.9636 7.54652 20.784 8.59198 20.4977L12.2477 19.4977C13.3022 19.209 14.3499 19.9772 14.392 21.0693L14.7363 30.0534C14.7715 30.9647 15.5204 31.6852 16.4317 31.6852H23.5579C25.0068 31.6852 25.7897 29.9875 24.8488 28.8852L16.9067 19.5863C16.3249 18.8034 16.2613 17.7511 16.7442 16.9034L26.4181 2.76927C27.2227 1.59314 26.3079 0.00904601 24.8874 0.118137L16.8772 0.734046C15.9352 0.806773 15.2329 1.63518 15.317 2.57609L16.0727 11.1022C16.0124 12.0477 15.4147 12.8738 14.5363 13.2272L12.309 14.1227C10.3886 14.8943 8.43175 13.092 9.04539 11.1147L11.5283 2.9545C11.8727 1.82382 10.984 0.69541 9.80334 0.765864L1.59652 1.25677C0.616979 1.31586 -0.108021 2.18859 0.0135696 3.16246L2.03061 19.2875C2.0488 19.4363 2.04766 19.5875 2.02721 19.7363L0.580615 29.9511C0.436297 30.9727 1.22948 31.8863 2.2613 31.8863V31.8863Z" fill="#FA4616"/>
<path d="M56.2749 30.8647L46.4339 2.41354C46.1305 1.53627 46.7817 0.621498 47.7112 0.621498H56.1203C56.901 0.621498 57.5203 1.28172 57.468 2.06127L54.2101 15.0204C54.0578 15.6272 54.2339 16.2704 54.6749 16.7147L57.8328 19.8976C58.5453 20.6158 59.7112 20.5999 60.4044 19.8624L63.4044 16.6715C63.801 16.2488 63.9692 15.6613 63.8544 15.0931L61.3874 2.89877C61.0067 1.78173 61.8362 0.620361 63.0169 0.620361H70.5635C71.4942 0.620361 72.1464 1.53854 71.8385 2.41695L61.8851 30.8658C61.7783 31.1715 61.4896 31.3772 61.1646 31.3772H56.9953C56.6703 31.3772 56.3805 31.1715 56.2737 30.8635L56.2749 30.8647Z" fill="#FA4616"/>
<path d="M53.617 28.8591L47.4818 19.3943C47.3523 19.1943 47.267 18.967 47.233 18.7307L44.8591 2.01361C44.7443 1.20225 44.05 0.599976 43.2307 0.599976H31.2955C30.7352 0.599976 30.2136 0.885203 29.9102 1.35679L21.2784 14.8113C20.9557 15.3147 20.9307 15.9534 21.2148 16.4795L28.5011 30.0113C28.7761 30.5216 29.3 30.85 29.8795 30.875L40.2705 31.3193C41.2534 31.3613 42.0534 30.5363 41.9818 29.5557L41.4432 22.2045C41.3739 21.2522 42.1273 20.4397 43.083 20.4386C44.0489 20.4386 44.808 21.2659 44.7239 22.2272L44.0761 29.6091C43.992 30.5704 44.75 31.3977 45.7148 31.3977H52.2386C53.5432 31.3977 54.3284 29.9522 53.6193 28.8579L53.617 28.8591ZM28.0352 20.1909L33.3818 6.51929C33.8307 5.37043 35.3375 5.10679 36.15 6.03293L41.4545 12.0772C41.942 12.6329 41.9989 13.4454 41.5943 14.0636L34.1602 25.4227C33.5614 26.3386 32.2523 26.425 31.5375 25.5954L28.3205 21.8625C27.9227 21.4011 27.8125 20.7568 28.0341 20.1886L28.0352 20.1909Z" fill="#FA4616"/>
<path d="M100.777 28.8591L94.642 19.3943C94.5124 19.1943 94.4272 18.967 94.3931 18.7307L92.0192 2.01361C91.9045 1.20225 91.2102 0.599976 90.3908 0.599976H78.4556C77.8954 0.599976 77.3738 0.885203 77.0704 1.35679L68.4386 14.8113C68.1158 15.3147 68.0908 15.9534 68.3749 16.4795L75.6613 30.0113C75.9363 30.5216 76.4602 30.85 77.0397 30.875L87.4306 31.3193C88.4136 31.3613 89.2136 30.5363 89.142 29.5557L88.6033 22.2045C88.534 21.2522 89.2874 20.4397 90.2431 20.4386C91.209 20.4386 91.9681 21.2659 91.884 22.2272L91.2363 29.6091C91.1522 30.5704 91.9102 31.3977 92.8749 31.3977H99.3988C100.703 31.3977 101.489 29.9522 100.779 28.8579L100.777 28.8591ZM75.1954 20.1909L80.542 6.51929C80.9908 5.37043 82.4977 5.10679 83.3102 6.03293L88.6147 12.0772C89.1022 12.6329 89.159 13.4454 88.7545 14.0636L81.3204 25.4227C80.7215 26.3386 79.4124 26.425 78.6977 25.5954L75.4806 21.8625C75.0829 21.4011 74.9727 20.7568 75.1942 20.1886L75.1954 20.1909Z" fill="#FA4616"/>
<path d="M134.776 30.4431L132.07 25.0158C131.808 24.4885 131.27 24.1544 130.682 24.1533L126.468 24.1385C126.182 24.1351 125.944 23.9169 125.915 23.6328L124.881 16.5022L124.878 16.0169L126.844 1.66694C126.925 0.818075 126.258 0.0839844 125.406 0.0839844H120.795C119.998 0.0839844 119.35 0.730575 119.35 1.52944L120.708 16.4828L120.706 16.8953L119.349 30.4703C119.349 31.2681 119.995 31.9158 120.794 31.9158L133.842 31.9453C134.615 31.9476 135.119 31.134 134.774 30.4431H134.776Z" fill="#FA4616"/>
</g>
<defs>
<clipPath id="clip0_330_311">
<rect width="179.93" height="32" fill="white"/>
</clipPath>
</defs>
</svg>
